<mxfile host="Electron" agent="Mozilla/5.0 (Windows NT 10.0; Win64; x64) AppleWebKit/537.36 (KHTML, like Gecko) draw.io/27.0.9 Chrome/134.0.6998.205 Electron/35.4.0 Safari/537.36" version="27.0.9">
  <diagram name="뉴스 에이전트 시스템" id="news-agent-system">
    <mxGraphModel dx="2305" dy="2401" grid="1" gridSize="10" guides="1" tooltips="1" connect="1" arrows="1" fold="1" page="1" pageScale="1" pageWidth="1600" pageHeight="1200" math="0" shadow="1">
      <root>
        <mxCell id="0" />
        <mxCell id="1" parent="0" />
        <mxCell id="title" value="📰 뉴스 에이전트 시스템 클래스 다이어그램" style="text;html=1;strokeColor=none;fillColor=none;align=center;verticalAlign=middle;whiteSpace=wrap;rounded=0;fontSize=24;fontStyle=1;fontColor=#2c3e50;" parent="1" vertex="1">
          <mxGeometry x="500" y="20" width="600" height="40" as="geometry" />
        </mxCell>
        <mxCell id="main-module" value="🎯 NewsAgentMain" style="swimlane;fontStyle=1;childLayout=stackLayout;horizontal=1;startSize=40;horizontalStack=0;resizeParent=1;resizeParentMax=0;resizeLast=0;collapsible=0;marginBottom=0;whiteSpace=wrap;html=1;fillColor=#e1d5e7;strokeColor=#9673a6;fontSize=14;fontColor=#2c3e50;shadow=1;rounded=1;" parent="1" vertex="1">
          <mxGeometry x="650" y="100" width="300" height="320" as="geometry" />
        </mxCell>
        <mxCell id="main-1" value="▶ startApplication()&#xa;   → 애플리케이션 시작" style="text;strokeColor=none;fillColor=#fff2cc;align=left;verticalAlign=middle;spacingLeft=10;spacingRight=4;overflow=hidden;points=[[0,0.5],[1,0.5]];portConstraint=eastwest;rotatable=0;whiteSpace=wrap;html=1;fontSize=12;rounded=1;strokeWidth=1;" parent="main-module" vertex="1">
          <mxGeometry y="40" width="300" height="30" as="geometry" />
        </mxCell>
        <mxCell id="main-2" value="▶ checkUserProfile()&#xa;   → 사용자 프로파일 확인" style="text;strokeColor=none;fillColor=#fff2cc;align=left;verticalAlign=middle;spacingLeft=10;spacingRight=4;overflow=hidden;points=[[0,0.5],[1,0.5]];portConstraint=eastwest;rotatable=0;whiteSpace=wrap;html=1;fontSize=12;rounded=1;" parent="main-module" vertex="1">
          <mxGeometry y="70" width="300" height="30" as="geometry" />
        </mxCell>
        <mxCell id="main-3" value="▶ requestCookiePermission()&#xa;   → 쿠키 사용 권한 요청" style="text;strokeColor=none;fillColor=#fff2cc;align=left;verticalAlign=middle;spacingLeft=10;spacingRight=4;overflow=hidden;points=[[0,0.5],[1,0.5]];portConstraint=eastwest;rotatable=0;whiteSpace=wrap;html=1;fontSize=12;rounded=1;" parent="main-module" vertex="1">
          <mxGeometry y="100" width="300" height="30" as="geometry" />
        </mxCell>
        <mxCell id="main-4" value="◀ validatePermission()&#xa;   ← 사용자 승인/거부 응답" style="text;strokeColor=none;fillColor=#d5e8d4;align=left;verticalAlign=middle;spacingLeft=10;spacingRight=4;overflow=hidden;points=[[0,0.5],[1,0.5]];portConstraint=eastwest;rotatable=0;whiteSpace=wrap;html=1;fontSize=12;rounded=1;" parent="main-module" vertex="1">
          <mxGeometry y="130" width="300" height="30" as="geometry" />
        </mxCell>
        <mxCell id="main-5" value="↔ coordinateSystemModule()&#xa;   ↔ 시스템 모듈과 연동" style="text;strokeColor=none;fillColor=#dae8fc;align=left;verticalAlign=middle;spacingLeft=10;spacingRight=4;overflow=hidden;points=[[0,0.5],[1,0.5]];portConstraint=eastwest;rotatable=0;whiteSpace=wrap;html=1;fontSize=12;rounded=1;" parent="main-module" vertex="1">
          <mxGeometry y="160" width="300" height="30" as="geometry" />
        </mxCell>
        <mxCell id="main-6" value="↔ coordinateAnalysisModule()&#xa;   ↔ 뉴스 분석 모듈과 연동" style="text;strokeColor=none;fillColor=#dae8fc;align=left;verticalAlign=middle;spacingLeft=10;spacingRight=4;overflow=hidden;points=[[0,0.5],[1,0.5]];portConstraint=eastwest;rotatable=0;whiteSpace=wrap;html=1;fontSize=12;rounded=1;" parent="main-module" vertex="1">
          <mxGeometry y="190" width="300" height="30" as="geometry" />
        </mxCell>
        <mxCell id="main-7" value="◀ generateNewsOutput()&#xa;   ← 요약된 뉴스 데이터 수신" style="text;strokeColor=none;fillColor=#d5e8d4;align=left;verticalAlign=middle;spacingLeft=10;spacingRight=4;overflow=hidden;points=[[0,0.5],[1,0.5]];portConstraint=eastwest;rotatable=0;whiteSpace=wrap;html=1;fontSize=12;rounded=1;" parent="main-module" vertex="1">
          <mxGeometry y="220" width="300" height="30" as="geometry" />
        </mxCell>
        <mxCell id="main-8" value="▶ sendToInterface()&#xa;   → 인터페이스로 최종 출력 전달" style="text;strokeColor=none;fillColor=#fff2cc;align=left;verticalAlign=middle;spacingLeft=10;spacingRight=4;overflow=hidden;points=[[0,0.5],[1,0.5]];portConstraint=eastwest;rotatable=0;whiteSpace=wrap;html=1;fontSize=12;rounded=1;" parent="main-module" vertex="1">
          <mxGeometry y="250" width="300" height="30" as="geometry" />
        </mxCell>
        <mxCell id="main-9" value="▶ accessExternalAPI()&#xa;   → 외부 API 접근 관리" style="text;strokeColor=none;fillColor=#fff2cc;align=left;verticalAlign=middle;spacingLeft=10;spacingRight=4;overflow=hidden;points=[[0,0.5],[1,0.5]];portConstraint=eastwest;rotatable=0;whiteSpace=wrap;html=1;fontSize=12;rounded=1;" parent="main-module" vertex="1">
          <mxGeometry y="280" width="300" height="30" as="geometry" />
        </mxCell>
        <mxCell id="system-module" value="⚙️ SystemModule" style="swimlane;fontStyle=1;childLayout=stackLayout;horizontal=1;startSize=40;horizontalStack=0;resizeParent=1;resizeParentMax=0;resizeLast=0;collapsible=0;marginBottom=0;whiteSpace=wrap;html=1;fillColor=#f8cecc;strokeColor=#b85450;fontSize=14;fontColor=#2c3e50;shadow=1;rounded=1;" parent="1" vertex="1">
          <mxGeometry x="80" y="480" width="320" height="280" as="geometry" />
        </mxCell>
        <mxCell id="system-1" value="◀ accessCookieData()&#xa;   ← 쿠키 데이터 접근" style="text;strokeColor=none;fillColor=#d5e8d4;align=left;verticalAlign=middle;spacingLeft=10;spacingRight=4;overflow=hidden;points=[[0,0.5],[1,0.5]];portConstraint=eastwest;rotatable=0;whiteSpace=wrap;html=1;fontSize=12;rounded=1;" parent="system-module" vertex="1">
          <mxGeometry y="40" width="320" height="30" as="geometry" />
        </mxCell>
        <mxCell id="system-2" value="▶ checkCookieExists()&#xa;   → 쿠키 데이터 존재 여부 확인" style="text;strokeColor=none;fillColor=#fff2cc;align=left;verticalAlign=middle;spacingLeft=10;spacingRight=4;overflow=hidden;points=[[0,0.5],[1,0.5]];portConstraint=eastwest;rotatable=0;whiteSpace=wrap;html=1;fontSize=12;rounded=1;" parent="system-module" vertex="1">
          <mxGeometry y="70" width="320" height="30" as="geometry" />
        </mxCell>
        <mxCell id="system-3" value="▶ analyzeCookieData()&#xa;   → 쿠키 데이터 분석 처리" style="text;strokeColor=none;fillColor=#fff2cc;align=left;verticalAlign=middle;spacingLeft=10;spacingRight=4;overflow=hidden;points=[[0,0.5],[1,0.5]];portConstraint=eastwest;rotatable=0;whiteSpace=wrap;html=1;fontSize=12;rounded=1;" parent="system-module" vertex="1">
          <mxGeometry y="100" width="320" height="30" as="geometry" />
        </mxCell>
        <mxCell id="system-4" value="▶ createPersonalizedProfile()&#xa;   → 개인화된 사용자 프로파일 생성" style="text;strokeColor=none;fillColor=#fff2cc;align=left;verticalAlign=middle;spacingLeft=10;spacingRight=4;overflow=hidden;points=[[0,0.5],[1,0.5]];portConstraint=eastwest;rotatable=0;whiteSpace=wrap;html=1;fontSize=12;rounded=1;" parent="system-module" vertex="1">
          <mxGeometry y="130" width="320" height="30" as="geometry" />
        </mxCell>
        <mxCell id="system-5" value="▶ createDefaultProfile()&#xa;   → 기본 사용자 프로파일 생성" style="text;strokeColor=none;fillColor=#fff2cc;align=left;verticalAlign=middle;spacingLeft=10;spacingRight=4;overflow=hidden;points=[[0,0.5],[1,0.5]];portConstraint=eastwest;rotatable=0;whiteSpace=wrap;html=1;fontSize=12;rounded=1;" parent="system-module" vertex="1">
          <mxGeometry y="160" width="320" height="30" as="geometry" />
        </mxCell>
        <mxCell id="system-6" value="▶ accessUserProfile()&#xa;   → 사용자 프로파일 접근 관리" style="text;strokeColor=none;fillColor=#fff2cc;align=left;verticalAlign=middle;spacingLeft=10;spacingRight=4;overflow=hidden;points=[[0,0.5],[1,0.5]];portConstraint=eastwest;rotatable=0;whiteSpace=wrap;html=1;fontSize=12;rounded=1;" parent="system-module" vertex="1">
          <mxGeometry y="190" width="320" height="30" as="geometry" />
        </mxCell>
        <mxCell id="system-7" value="▶ checkWeeklyUpdate()&#xa;   → 1주일 경과 여부 확인" style="text;strokeColor=none;fillColor=#fff2cc;align=left;verticalAlign=middle;spacingLeft=10;spacingRight=4;overflow=hidden;points=[[0,0.5],[1,0.5]];portConstraint=eastwest;rotatable=0;whiteSpace=wrap;html=1;fontSize=12;rounded=1;" parent="system-module" vertex="1">
          <mxGeometry y="220" width="320" height="30" as="geometry" />
        </mxCell>
        <mxCell id="system-8" value="↔ manageCloudStorage()&#xa;   ↔ 클라우드 사용자 파일 관리" style="text;strokeColor=none;fillColor=#dae8fc;align=left;verticalAlign=middle;spacingLeft=10;spacingRight=4;overflow=hidden;points=[[0,0.5],[1,0.5]];portConstraint=eastwest;rotatable=0;whiteSpace=wrap;html=1;fontSize=12;rounded=1;" parent="system-module" vertex="1">
          <mxGeometry y="250" width="320" height="30" as="geometry" />
        </mxCell>
        <mxCell id="analysis-module" value="📊 NewsAnalysisModule" style="swimlane;fontStyle=1;childLayout=stackLayout;horizontal=1;startSize=40;horizontalStack=0;resizeParent=1;resizeParentMax=0;resizeLast=0;collapsible=0;marginBottom=0;whiteSpace=wrap;html=1;fillColor=#d5e8d4;strokeColor=#82b366;fontSize=14;fontColor=#2c3e50;shadow=1;rounded=1;" parent="1" vertex="1">
          <mxGeometry x="1200" y="480" width="320" height="250" as="geometry" />
        </mxCell>
        <mxCell id="analysis-1" value="▶ callExternalAPI()&#xa;   → 외부 API 호출 (AI, 뉴스 API)" style="text;strokeColor=none;fillColor=#fff2cc;align=left;verticalAlign=middle;spacingLeft=10;spacingRight=4;overflow=hidden;points=[[0,0.5],[1,0.5]];portConstraint=eastwest;rotatable=0;whiteSpace=wrap;html=1;fontSize=12;rounded=1;" parent="analysis-module" vertex="1">
          <mxGeometry y="40" width="320" height="30" as="geometry" />
        </mxCell>
        <mxCell id="analysis-2" value="◀ crawlNewsData()&#xa;   ← 뉴스 데이터 크롤링 및 수집" style="text;strokeColor=none;fillColor=#d5e8d4;align=left;verticalAlign=middle;spacingLeft=10;spacingRight=4;overflow=hidden;points=[[0,0.5],[1,0.5]];portConstraint=eastwest;rotatable=0;whiteSpace=wrap;html=1;fontSize=12;rounded=1;" parent="analysis-module" vertex="1">
          <mxGeometry y="70" width="320" height="30" as="geometry" />
        </mxCell>
        <mxCell id="analysis-3" value="▶ callAI()&#xa;   → AI 모델 호출" style="text;strokeColor=none;fillColor=#fff2cc;align=left;verticalAlign=middle;spacingLeft=10;spacingRight=4;overflow=hidden;points=[[0,0.5],[1,0.5]];portConstraint=eastwest;rotatable=0;whiteSpace=wrap;html=1;fontSize=12;rounded=1;" parent="analysis-module" vertex="1">
          <mxGeometry y="100" width="320" height="30" as="geometry" />
        </mxCell>
        <mxCell id="analysis-4" value="◀ summarizeNewsWithProfile()&#xa;   ← 사용자 프로파일 기반 뉴스 요약" style="text;strokeColor=none;fillColor=#d5e8d4;align=left;verticalAlign=middle;spacingLeft=10;spacingRight=4;overflow=hidden;points=[[0,0.5],[1,0.5]];portConstraint=eastwest;rotatable=0;whiteSpace=wrap;html=1;fontSize=12;rounded=1;" parent="analysis-module" vertex="1">
          <mxGeometry y="130" width="320" height="30" as="geometry" />
        </mxCell>
        <mxCell id="analysis-5" value="▶ requery()&#xa;   → 요약 결과 기반 재질의" style="text;strokeColor=none;fillColor=#fff2cc;align=left;verticalAlign=middle;spacingLeft=10;spacingRight=4;overflow=hidden;points=[[0,0.5],[1,0.5]];portConstraint=eastwest;rotatable=0;whiteSpace=wrap;html=1;fontSize=12;rounded=1;" parent="analysis-module" vertex="1">
          <mxGeometry y="160" width="320" height="30" as="geometry" />
        </mxCell>
        <mxCell id="analysis-6" value="▶ generateFinalSummary()&#xa;   → 최종 뉴스 데이터 요약본 생성" style="text;strokeColor=none;fillColor=#fff2cc;align=left;verticalAlign=middle;spacingLeft=10;spacingRight=4;overflow=hidden;points=[[0,0.5],[1,0.5]];portConstraint=eastwest;rotatable=0;whiteSpace=wrap;html=1;fontSize=12;rounded=1;" parent="analysis-module" vertex="1">
          <mxGeometry y="190" width="320" height="30" as="geometry" />
        </mxCell>
        <mxCell id="analysis-7" value="◀ receiveUserProfile()&#xa;   ← 시스템 모듈로부터 사용자 파일 수신" style="text;strokeColor=none;fillColor=#d5e8d4;align=left;verticalAlign=middle;spacingLeft=10;spacingRight=4;overflow=hidden;points=[[0,0.5],[1,0.5]];portConstraint=eastwest;rotatable=0;whiteSpace=wrap;html=1;fontSize=12;rounded=1;" parent="analysis-module" vertex="1">
          <mxGeometry y="220" width="320" height="30" as="geometry" />
        </mxCell>
        <mxCell id="api-module" value="🌐 ExternalAPIModule" style="swimlane;fontStyle=1;childLayout=stackLayout;horizontal=1;startSize=40;horizontalStack=0;resizeParent=1;resizeParentMax=0;resizeLast=0;collapsible=0;marginBottom=0;whiteSpace=wrap;html=1;fillColor=#ffe6cc;strokeColor=#d79b00;fontSize=14;fontColor=#2c3e50;shadow=1;rounded=1;" parent="1" vertex="1">
          <mxGeometry x="1200" y="800" width="320" height="130" as="geometry" />
        </mxCell>
        <mxCell id="api-1" value="↔ accessCloudStorage()&#xa;   ↔ 클라우드 스토리지 (사용자 파일)" style="text;strokeColor=none;fillColor=#dae8fc;align=left;verticalAlign=middle;spacingLeft=10;spacingRight=4;overflow=hidden;points=[[0,0.5],[1,0.5]];portConstraint=eastwest;rotatable=0;whiteSpace=wrap;html=1;fontSize=12;rounded=1;" parent="api-module" vertex="1">
          <mxGeometry y="40" width="320" height="30" as="geometry" />
        </mxCell>
        <mxCell id="api-2" value="◀ accessNewsAPI()&#xa;   ← 뉴스 API 데이터 수신" style="text;strokeColor=none;fillColor=#d5e8d4;align=left;verticalAlign=middle;spacingLeft=10;spacingRight=4;overflow=hidden;points=[[0,0.5],[1,0.5]];portConstraint=eastwest;rotatable=0;whiteSpace=wrap;html=1;fontSize=12;rounded=1;" parent="api-module" vertex="1">
          <mxGeometry y="70" width="320" height="30" as="geometry" />
        </mxCell>
        <mxCell id="api-3" value="↔ accessOpenAI()&#xa;   ↔ OpenAI API 통신" style="text;strokeColor=none;fillColor=#dae8fc;align=left;verticalAlign=middle;spacingLeft=10;spacingRight=4;overflow=hidden;points=[[0,0.5],[1,0.5]];portConstraint=eastwest;rotatable=0;whiteSpace=wrap;html=1;fontSize=12;rounded=1;" parent="api-module" vertex="1">
          <mxGeometry y="100" width="320" height="30" as="geometry" />
        </mxCell>
        <mxCell id="interface-module" value="📱 InterfaceModule" style="swimlane;fontStyle=1;childLayout=stackLayout;horizontal=1;startSize=40;horizontalStack=0;resizeParent=1;resizeParentMax=0;resizeLast=0;collapsible=0;marginBottom=0;whiteSpace=wrap;html=1;fillColor=#dae8fc;strokeColor=#6c8ebf;fontSize=14;fontColor=#2c3e50;shadow=1;rounded=1;" parent="1" vertex="1">
          <mxGeometry x="650" y="800" width="300" height="160" as="geometry" />
        </mxCell>
        <mxCell id="interface-1" value="◀ receiveNewsData()&#xa;   ← 메인 모듈로부터 뉴스 데이터 수신" style="text;strokeColor=none;fillColor=#d5e8d4;align=left;verticalAlign=middle;spacingLeft=10;spacingRight=4;overflow=hidden;points=[[0,0.5],[1,0.5]];portConstraint=eastwest;rotatable=0;whiteSpace=wrap;html=1;fontSize=12;rounded=1;" parent="interface-module" vertex="1">
          <mxGeometry y="40" width="300" height="30" as="geometry" />
        </mxCell>
        <mxCell id="interface-2" value="▶ displayOnSmartphone()&#xa;   → 스마트폰 화면 출력" style="text;strokeColor=none;fillColor=#fff2cc;align=left;verticalAlign=middle;spacingLeft=10;spacingRight=4;overflow=hidden;points=[[0,0.5],[1,0.5]];portConstraint=eastwest;rotatable=0;whiteSpace=wrap;html=1;fontSize=12;rounded=1;" parent="interface-module" vertex="1">
          <mxGeometry y="70" width="300" height="30" as="geometry" />
        </mxCell>
        <mxCell id="interface-3" value="▶ displayOnTablet()&#xa;   → 태블릿 화면 출력" style="text;strokeColor=none;fillColor=#fff2cc;align=left;verticalAlign=middle;spacingLeft=10;spacingRight=4;overflow=hidden;points=[[0,0.5],[1,0.5]];portConstraint=eastwest;rotatable=0;whiteSpace=wrap;html=1;fontSize=12;rounded=1;" parent="interface-module" vertex="1">
          <mxGeometry y="100" width="300" height="30" as="geometry" />
        </mxCell>
        <mxCell id="interface-4" value="▶ displayOnPC()&#xa;   → PC 화면 출력" style="text;strokeColor=none;fillColor=#fff2cc;align=left;verticalAlign=middle;spacingLeft=10;spacingRight=4;overflow=hidden;points=[[0,0.5],[1,0.5]];portConstraint=eastwest;rotatable=0;whiteSpace=wrap;html=1;fontSize=12;rounded=1;" parent="interface-module" vertex="1">
          <mxGeometry y="130" width="300" height="30" as="geometry" />
        </mxCell>
        <mxCell id="smartphone-class" value="📱 Smartphone" style="swimlane;fontStyle=1;childLayout=stackLayout;horizontal=1;startSize=40;horizontalStack=0;resizeParent=1;resizeParentMax=0;resizeLast=0;collapsible=0;marginBottom=0;whiteSpace=wrap;html=1;fillColor=#f0f0f0;strokeColor=#666666;fontSize=14;fontColor=#2c3e50;shadow=1;rounded=1;" parent="1" vertex="1">
          <mxGeometry x="80" y="1050" width="200" height="130" as="geometry" />
        </mxCell>
        <mxCell id="smartphone-1" value="◀ displayNews()&#xa;   ← 뉴스 데이터 화면 표시" style="text;strokeColor=none;fillColor=#d5e8d4;align=left;verticalAlign=middle;spacingLeft=10;spacingRight=4;overflow=hidden;points=[[0,0.5],[1,0.5]];portConstraint=eastwest;rotatable=0;whiteSpace=wrap;html=1;fontSize=12;rounded=1;" parent="smartphone-class" vertex="1">
          <mxGeometry y="40" width="200" height="30" as="geometry" />
        </mxCell>
        <mxCell id="smartphone-2" value="▶ showWidget()&#xa;   → 위젯 표시" style="text;strokeColor=none;fillColor=#fff2cc;align=left;verticalAlign=middle;spacingLeft=10;spacingRight=4;overflow=hidden;points=[[0,0.5],[1,0.5]];portConstraint=eastwest;rotatable=0;whiteSpace=wrap;html=1;fontSize=12;rounded=1;" parent="smartphone-class" vertex="1">
          <mxGeometry y="70" width="200" height="30" as="geometry" />
        </mxCell>
        <mxCell id="smartphone-3" value="▶ checkCompatibility()&#xa;   → 호환성 확인" style="text;strokeColor=none;fillColor=#fff2cc;align=left;verticalAlign=middle;spacingLeft=10;spacingRight=4;overflow=hidden;points=[[0,0.5],[1,0.5]];portConstraint=eastwest;rotatable=0;whiteSpace=wrap;html=1;fontSize=12;rounded=1;" parent="smartphone-class" vertex="1">
          <mxGeometry y="100" width="200" height="30" as="geometry" />
        </mxCell>
        <mxCell id="tablet-class" value="💻 Tablet" style="swimlane;fontStyle=1;childLayout=stackLayout;horizontal=1;startSize=40;horizontalStack=0;resizeParent=1;resizeParentMax=0;resizeLast=0;collapsible=0;marginBottom=0;whiteSpace=wrap;html=1;fillColor=#f0f0f0;strokeColor=#666666;fontSize=14;fontColor=#2c3e50;shadow=1;rounded=1;" parent="1" vertex="1">
          <mxGeometry x="320" y="1050" width="200" height="130" as="geometry" />
        </mxCell>
        <mxCell id="tablet-1" value="◀ displayNews()&#xa;   ← 뉴스 데이터 화면 표시" style="text;strokeColor=none;fillColor=#d5e8d4;align=left;verticalAlign=middle;spacingLeft=10;spacingRight=4;overflow=hidden;points=[[0,0.5],[1,0.5]];portConstraint=eastwest;rotatable=0;whiteSpace=wrap;html=1;fontSize=12;rounded=1;" parent="tablet-class" vertex="1">
          <mxGeometry y="40" width="200" height="30" as="geometry" />
        </mxCell>
        <mxCell id="tablet-2" value="▶ showWidget()&#xa;   → 위젯 표시" style="text;strokeColor=none;fillColor=#fff2cc;align=left;verticalAlign=middle;spacingLeft=10;spacingRight=4;overflow=hidden;points=[[0,0.5],[1,0.5]];portConstraint=eastwest;rotatable=0;whiteSpace=wrap;html=1;fontSize=12;rounded=1;" parent="tablet-class" vertex="1">
          <mxGeometry y="70" width="200" height="30" as="geometry" />
        </mxCell>
        <mxCell id="tablet-3" value="▶ checkCompatibility()&#xa;   → 호환성 확인" style="text;strokeColor=none;fillColor=#fff2cc;align=left;verticalAlign=middle;spacingLeft=10;spacingRight=4;overflow=hidden;points=[[0,0.5],[1,0.5]];portConstraint=eastwest;rotatable=0;whiteSpace=wrap;html=1;fontSize=12;rounded=1;" parent="tablet-class" vertex="1">
          <mxGeometry y="100" width="200" height="30" as="geometry" />
        </mxCell>
        <mxCell id="pc-class" value="🖥️ PC" style="swimlane;fontStyle=1;childLayout=stackLayout;horizontal=1;startSize=40;horizontalStack=0;resizeParent=1;resizeParentMax=0;resizeLast=0;collapsible=0;marginBottom=0;whiteSpace=wrap;html=1;fillColor=#f0f0f0;strokeColor=#666666;fontSize=14;fontColor=#2c3e50;shadow=1;rounded=1;" parent="1" vertex="1">
          <mxGeometry x="560" y="1050" width="200" height="100" as="geometry" />
        </mxCell>
        <mxCell id="pc-1" value="◀ displayNews()&#xa;   ← 뉴스 데이터 화면 표시" style="text;strokeColor=none;fillColor=#d5e8d4;align=left;verticalAlign=middle;spacingLeft=10;spacingRight=4;overflow=hidden;points=[[0,0.5],[1,0.5]];portConstraint=eastwest;rotatable=0;whiteSpace=wrap;html=1;fontSize=12;rounded=1;" parent="pc-class" vertex="1">
          <mxGeometry y="40" width="200" height="30" as="geometry" />
        </mxCell>
        <mxCell id="pc-2" value="▶ checkCompatibility()&#xa;   → 호환성 확인" style="text;strokeColor=none;fillColor=#fff2cc;align=left;verticalAlign=middle;spacingLeft=10;spacingRight=4;overflow=hidden;points=[[0,0.5],[1,0.5]];portConstraint=eastwest;rotatable=0;whiteSpace=wrap;html=1;fontSize=12;rounded=1;" parent="pc-class" vertex="1">
          <mxGeometry y="70" width="200" height="30" as="geometry" />
        </mxCell>
        <mxCell id="main-to-system" style="edgeStyle=orthogonalEdgeStyle;rounded=1;orthogonalLoop=1;jettySize=auto;html=1;exitX=0;exitY=0.5;exitDx=0;exitDy=0;entryX=1;entryY=0.5;entryDx=0;entryDy=0;strokeWidth=3;strokeColor=#3498db;startArrow=diamond;startFill=1;endArrow=diamond;endFill=1;shadow=1;" parent="1" source="main-5" target="system-6" edge="1">
          <mxGeometry relative="1" as="geometry">
            <Array as="points">
              <mxPoint x="550" y="275" />
              <mxPoint x="550" y="685" />
            </Array>
          </mxGeometry>
        </mxCell>
        <mxCell id="main-to-system-label" value="🔄 사용자 프로파일&#xa;데이터 교환" style="edgeLabel;html=1;align=center;verticalAlign=middle;resizable=0;points=[];fontSize=11;fontStyle=1;fillColor=#ffffff;strokeColor=#cccccc;rounded=1;" parent="main-to-system" vertex="1" connectable="0">
          <mxGeometry x="-0.15" y="5" relative="1" as="geometry">
            <mxPoint x="10" y="-5" as="offset" />
          </mxGeometry>
        </mxCell>
        <mxCell id="main-to-analysis" style="edgeStyle=orthogonalEdgeStyle;rounded=1;orthogonalLoop=1;jettySize=auto;html=1;exitX=1;exitY=0.5;exitDx=0;exitDy=0;entryX=0;entryY=0.5;entryDx=0;entryDy=0;strokeWidth=3;strokeColor=#3498db;startArrow=diamond;startFill=1;endArrow=diamond;endFill=1;shadow=1;" parent="1" source="main-6" target="analysis-7" edge="1">
          <mxGeometry relative="1" as="geometry">
            <Array as="points">
              <mxPoint x="1050" y="305" />
              <mxPoint x="1050" y="715" />
            </Array>
          </mxGeometry>
        </mxCell>
        <mxCell id="main-to-analysis-label" value="📊 뉴스 분석&#xa;요청/응답" style="edgeLabel;html=1;align=center;verticalAlign=middle;resizable=0;points=[];fontSize=11;fontStyle=1;fillColor=#ffffff;strokeColor=#cccccc;rounded=1;" parent="main-to-analysis" vertex="1" connectable="0">
          <mxGeometry x="-0.1" y="3" relative="1" as="geometry">
            <mxPoint x="-10" y="-5" as="offset" />
          </mxGeometry>
        </mxCell>
        <mxCell id="main-to-interface" style="edgeStyle=orthogonalEdgeStyle;rounded=1;orthogonalLoop=1;jettySize=auto;html=1;exitX=0.5;exitY=1;exitDx=0;exitDy=0;entryX=0.5;entryY=0;entryDx=0;entryDy=0;strokeWidth=4;strokeColor=#e74c3c;endArrow=blockThin;endFill=1;shadow=1;" parent="1" source="main-8" target="interface-module" edge="1">
          <mxGeometry relative="1" as="geometry" />
        </mxCell>
        <mxCell id="main-to-interface-label" value="📰 최종 뉴스&#xa;데이터 전송" style="edgeLabel;html=1;align=center;verticalAlign=middle;resizable=0;points=[];fontSize=11;fontStyle=1;fillColor=#ffffff;strokeColor=#cccccc;rounded=1;" parent="main-to-interface" vertex="1" connectable="0">
          <mxGeometry x="-0.2" y="2" relative="1" as="geometry">
            <mxPoint as="offset" />
          </mxGeometry>
        </mxCell>
        <mxCell id="system-to-analysis" style="edgeStyle=orthogonalEdgeStyle;rounded=1;orthogonalLoop=1;jettySize=auto;html=1;exitX=1;exitY=0.5;exitDx=0;exitDy=0;entryX=0;entryY=0.5;entryDx=0;entryDy=0;strokeWidth=2;strokeColor=#f39c12;endArrow=blockThin;endFill=1;strokeDashArray=8 8;shadow=1;" parent="1" source="system-6" target="analysis-7" edge="1">
          <mxGeometry relative="1" as="geometry">
            <Array as="points">
              <mxPoint x="500" y="685" />
              <mxPoint x="500" y="715" />
            </Array>
          </mxGeometry>
        </mxCell>
        <mxCell id="system-to-analysis-label" value="👤 사용자&#xa;프로파일" style="edgeLabel;html=1;align=center;verticalAlign=middle;resizable=0;points=[];fontSize=11;fontStyle=1;fillColor=#ffffff;strokeColor=#cccccc;rounded=1;" parent="system-to-analysis" vertex="1" connectable="0">
          <mxGeometry x="0.1" y="2" relative="1" as="geometry">
            <mxPoint as="offset" />
          </mxGeometry>
        </mxCell>
        <mxCell id="analysis-to-api" style="edgeStyle=orthogonalEdgeStyle;rounded=1;orthogonalLoop=1;jettySize=auto;html=1;exitX=0.5;exitY=1;exitDx=0;exitDy=0;entryX=0.5;entryY=0;entryDx=0;entryDy=0;strokeWidth=2;strokeColor=#f39c12;endArrow=blockThin;endFill=1;strokeDashArray=8 8;shadow=1;" parent="1" source="analysis-1" target="api-module" edge="1">
          <mxGeometry relative="1" as="geometry" />
        </mxCell>
        <mxCell id="analysis-to-api-label" value="🌐 외부 API&#xa;호출" style="edgeLabel;html=1;align=center;verticalAlign=middle;resizable=0;points=[];fontSize=11;fontStyle=1;fillColor=#ffffff;strokeColor=#cccccc;rounded=1;" parent="analysis-to-api" vertex="1" connectable="0">
          <mxGeometry x="-0.3" y="1" relative="1" as="geometry">
            <mxPoint as="offset" />
          </mxGeometry>
        </mxCell>
        <mxCell id="interface-to-smartphone" style="edgeStyle=orthogonalEdgeStyle;rounded=1;orthogonalLoop=1;jettySize=auto;html=1;exitX=0;exitY=0.5;exitDx=0;exitDy=0;entryX=0.5;entryY=0;entryDx=0;entryDy=0;strokeWidth=3;strokeColor=#27ae60;endArrow=blockThin;endFill=1;shadow=1;" parent="1" source="interface-2" target="smartphone-class" edge="1">
          <mxGeometry relative="1" as="geometry">
            <Array as="points">
              <mxPoint x="500" y="885" />
              <mxPoint x="500" y="1000" />
              <mxPoint x="180" y="1000" />
            </Array>
          </mxGeometry>
        </mxCell>
        <mxCell id="interface-to-tablet" style="edgeStyle=orthogonalEdgeStyle;rounded=1;orthogonalLoop=1;jettySize=auto;html=1;exitX=0.5;exitY=1;exitDx=0;exitDy=0;entryX=0.5;entryY=0;entryDx=0;entryDy=0;strokeWidth=3;strokeColor=#27ae60;endArrow=blockThin;endFill=1;shadow=1;" parent="1" source="interface-3" target="tablet-class" edge="1">
          <mxGeometry relative="1" as="geometry">
            <Array as="points">
              <mxPoint x="800" y="1000" />
              <mxPoint x="420" y="1000" />
            </Array>
          </mxGeometry>
        </mxCell>
        <mxCell id="interface-to-pc" style="edgeStyle=orthogonalEdgeStyle;rounded=1;orthogonalLoop=1;jettySize=auto;html=1;exitX=1;exitY=0.5;exitDx=0;exitDy=0;entryX=0.5;entryY=0;entryDx=0;entryDy=0;strokeWidth=3;strokeColor=#27ae60;endArrow=blockThin;endFill=1;shadow=1;" parent="1" source="interface-4" target="pc-class" edge="1">
          <mxGeometry relative="1" as="geometry">
            <Array as="points">
              <mxPoint x="1100" y="945" />
              <mxPoint x="1100" y="1000" />
              <mxPoint x="660" y="1000" />
            </Array>
          </mxGeometry>
        </mxCell>
        <mxCell id="device-output-label" value="📺 디바이스별 출력" style="text;html=1;strokeColor=#cccccc;fillColor=#ffffff;align=center;verticalAlign=middle;whiteSpace=wrap;rounded=1;fontSize=11;fontStyle=1;" parent="1" vertex="1">
          <mxGeometry x="600" y="1000" width="120" height="30" as="geometry" />
        </mxCell>
        <mxCell id="legend-box" value="" style="rounded=1;whiteSpace=wrap;html=1;fillColor=#f8f9fa;strokeColor=#dee2e6;strokeWidth=2;shadow=1;" parent="1" vertex="1">
          <mxGeometry x="1200" y="80" width="320" height="220" as="geometry" />
        </mxCell>
        <mxCell id="legend-title" value="📋 범례 (Legend)" style="text;html=1;strokeColor=none;fillColor=none;align=center;verticalAlign=middle;whiteSpace=wrap;rounded=0;fontSize=16;fontStyle=1;fontColor=#2c3e50;" parent="1" vertex="1">
          <mxGeometry x="1200" y="90" width="320" height="30" as="geometry" />
        </mxCell>
        <mxCell id="legend-input" value="◀ 데이터 입력 방향" style="text;html=1;strokeColor=none;fillColor=#d5e8d4;align=left;verticalAlign=middle;whiteSpace=wrap;rounded=1;fontSize=12;spacingLeft=10;" parent="1" vertex="1">
          <mxGeometry x="1210" y="130" width="140" height="25" as="geometry" />
        </mxCell>
        <mxCell id="legend-output" value="▶ 데이터 출력 방향" style="text;html=1;strokeColor=none;fillColor=#fff2cc;align=left;verticalAlign=middle;whiteSpace=wrap;rounded=1;fontSize=12;spacingLeft=10;" parent="1" vertex="1">
          <mxGeometry x="1360" y="130" width="140" height="25" as="geometry" />
        </mxCell>
        <mxCell id="legend-bidirectional" value="↔ 양방향 데이터 교환" style="text;html=1;strokeColor=none;fillColor=#dae8fc;align=left;verticalAlign=middle;whiteSpace=wrap;rounded=1;fontSize=12;spacingLeft=10;" parent="1" vertex="1">
          <mxGeometry x="1210" y="165" width="140" height="25" as="geometry" />
        </mxCell>
        <mxCell id="legend-direct" value="━━ 직접 연결" style="text;html=1;strokeColor=#3498db;fillColor=#ffffff;align=left;verticalAlign=middle;whiteSpace=wrap;rounded=1;fontSize=12;spacingLeft=10;strokeWidth=3;" parent="1" vertex="1">
          <mxGeometry x="1360" y="165" width="140" height="25" as="geometry" />
        </mxCell>
        <mxCell id="legend-dependency" value="┅┅ 의존 관계" style="text;html=1;strokeColor=#f39c12;fillColor=#ffffff;align=left;verticalAlign=middle;whiteSpace=wrap;rounded=1;fontSize=12;spacingLeft=10;strokeWidth=2;strokeDashArray=8 8;" parent="1" vertex="1">
          <mxGeometry x="1210" y="200" width="140" height="25" as="geometry" />
        </mxCell>
        <mxCell id="legend-output-line" value="──▶ 출력 흐름" style="text;html=1;strokeColor=#e74c3c;fillColor=#ffffff;align=left;verticalAlign=middle;whiteSpace=wrap;rounded=1;fontSize=12;spacingLeft=10;strokeWidth=3;" parent="1" vertex="1">
          <mxGeometry x="1360" y="200" width="140" height="25" as="geometry" />
        </mxCell>
        <mxCell id="flow-box" value="" style="rounded=1;whiteSpace=wrap;html=1;fillColor=#f8f9fa;strokeColor=#dee2e6;strokeWidth=2;shadow=1;" parent="1" vertex="1">
          <mxGeometry x="80" y="80" width="400" height="180" as="geometry" />
        </mxCell>
        <mxCell id="flow-title" value="🔄 시스템 데이터 흐름" style="text;html=1;strokeColor=none;fillColor=none;align=center;verticalAlign=middle;whiteSpace=wrap;rounded=0;fontSize=16;fontStyle=1;fontColor=#2c3e50;" parent="1" vertex="1">
          <mxGeometry x="80" y="90" width="400" height="30" as="geometry" />
        </mxCell>
        <mxCell id="flow-step1" value="1️⃣ 접속 시작 → 사용자 파일 확인" style="text;html=1;strokeColor=none;fillColor=#e8f5e8;align=left;verticalAlign=middle;whiteSpace=wrap;rounded=1;fontSize=12;spacingLeft=10;" parent="1" vertex="1">
          <mxGeometry x="90" y="130" width="380" height="20" as="geometry" />
        </mxCell>
        <mxCell id="flow-step2" value="2️⃣ 쿠키 권한 요청 → 사용자 승인/거부" style="text;html=1;strokeColor=none;fillColor=#ffe8e8;align=left;verticalAlign=middle;whiteSpace=wrap;rounded=1;fontSize=12;spacingLeft=10;" parent="1" vertex="1">
          <mxGeometry x="90" y="155" width="380" height="20" as="geometry" />
        </mxCell>
        <mxCell id="flow-step3" value="3️⃣ 시스템 모듈에서 개인화 프로파일 생성" style="text;html=1;strokeColor=none;fillColor=#e8f0ff;align=left;verticalAlign=middle;whiteSpace=wrap;rounded=1;fontSize=12;spacingLeft=10;" parent="1" vertex="1">
          <mxGeometry x="90" y="180" width="380" height="20" as="geometry" />
        </mxCell>
        <mxCell id="flow-step4" value="4️⃣ 뉴스 분석 모듈에서 AI 기반 데이터 처리" style="text;html=1;strokeColor=none;fillColor=#fff8e8;align=left;verticalAlign=middle;whiteSpace=wrap;rounded=1;fontSize=12;spacingLeft=10;" parent="1" vertex="1">
          <mxGeometry x="90" y="205" width="380" height="20" as="geometry" />
        </mxCell>
        <mxCell id="flow-step5" value="5️⃣ 인터페이스를 통한 다중 디바이스 최종 출력" style="text;html=1;strokeColor=none;fillColor=#f0e8ff;align=left;verticalAlign=middle;whiteSpace=wrap;rounded=1;fontSize=12;spacingLeft=10;" parent="1" vertex="1">
          <mxGeometry x="90" y="230" width="380" height="20" as="geometry" />
        </mxCell>
        <mxCell id="modules-box" value="" style="rounded=1;whiteSpace=wrap;html=1;fillColor=#f8f9fa;strokeColor=#dee2e6;strokeWidth=2;shadow=1;" parent="1" vertex="1">
          <mxGeometry x="1170" y="-200" width="400" height="180" as="geometry" />
        </mxCell>
        <mxCell id="modules-title" value="🏗️ 주요 모듈 역할" style="text;html=1;strokeColor=none;fillColor=none;align=center;verticalAlign=middle;whiteSpace=wrap;rounded=0;fontSize=16;fontStyle=1;fontColor=#2c3e50;" parent="1" vertex="1">
          <mxGeometry x="500" y="90" width="400" height="30" as="geometry" />
        </mxCell>
        <mxCell id="modules-main" value="🎯 메인 모듈: 전체 시스템 흐름 제어 및 조정" style="text;html=1;strokeColor=none;fillColor=#e8e5ff;align=left;verticalAlign=middle;whiteSpace=wrap;rounded=1;fontSize=12;spacingLeft=10;" parent="1" vertex="1">
          <mxGeometry x="510" y="130" width="380" height="20" as="geometry" />
        </mxCell>
        <mxCell id="modules-system" value="⚙️ 시스템 모듈: 사용자 데이터 및 프로파일 관리" style="text;html=1;strokeColor=none;fillColor=#ffe8f0;align=left;verticalAlign=middle;whiteSpace=wrap;rounded=1;fontSize=12;spacingLeft=10;" parent="1" vertex="1">
          <mxGeometry x="510" y="155" width="380" height="20" as="geometry" />
        </mxCell>
        <mxCell id="modules-analysis" value="📊 분석 모듈: 뉴스 데이터 AI 처리 및 요약" style="text;html=1;strokeColor=none;fillColor=#e8fff0;align=left;verticalAlign=middle;whiteSpace=wrap;rounded=1;fontSize=12;spacingLeft=10;" parent="1" vertex="1">
          <mxGeometry x="510" y="180" width="380" height="20" as="geometry" />
        </mxCell>
        <mxCell id="modules-api" value="🌐 API 모듈: 외부 서비스 연동 및 통신" style="text;html=1;strokeColor=none;fillColor=#fff0e8;align=left;verticalAlign=middle;whiteSpace=wrap;rounded=1;fontSize=12;spacingLeft=10;" parent="1" vertex="1">
          <mxGeometry x="510" y="205" width="380" height="20" as="geometry" />
        </mxCell>
        <mxCell id="modules-interface" value="📱 인터페이스: 다중 디바이스 출력 관리" style="text;html=1;strokeColor=none;fillColor=#e8f8ff;align=left;verticalAlign=middle;whiteSpace=wrap;rounded=1;fontSize=12;spacingLeft=10;" parent="1" vertex="1">
          <mxGeometry x="510" y="230" width="380" height="20" as="geometry" />
        </mxCell>
      </root>
    </mxGraphModel>
  </diagram>
</mxfile>
